<svg xmlns="http://www.w3.org/2000/svg" width="1600" height="1000"><rect width="1600" height="1000" fill="#071018"/><style>text{font-family:Inter,Segoe UI,Arial,sans-serif}</style><rect width="1600" height="64" fill="#08131c"/><text x="36" y="41" fill="#edf6fb" font-size="22" font-weight="800">THE 2026 IRAN WAR GUIDE</text><text x="560" y="39" fill="#9fb0bd" font-size="14">HOME   WAR   THEMES   DIPLOMACY   INTELLIGENCE   SOURCES</text><text x="40" y="100" fill="#ef5265" font-size="13">evidence.web-of-lies.actor-dossier</text><text x="40" y="145" fill="#edf6fb" font-size="38" font-weight="800">Web of Lies · Actor Dossier</text><text x="40" y="177" fill="#9fb0bd" font-size="17">Selected actor record with direct connections, propagation trace, findings, and receipts.</text><rect x="40" y="205" width="365" height="86" rx="12" fill="#0b1721" stroke="#203746"/><text x="58" y="233" fill="#26c6e8" font-size="12">CURRENT RECORD</text><text x="58" y="264" fill="#edf6fb" font-size="20">accepted current value</text><rect x="421" y="205" width="365" height="86" rx="12" fill="#0b1721" stroke="#203746"/><text x="439" y="233" fill="#f0b83f" font-size="12">FINDINGS</text><text x="439" y="264" fill="#edf6fb" font-size="20">accepted current value</text><rect x="802" y="205" width="365" height="86" rx="12" fill="#0b1721" stroke="#203746"/><text x="820" y="233" fill="#ef5265" font-size="12">CLAIM ACTIVITY</text><text x="820" y="264" fill="#edf6fb" font-size="20">accepted current value</text><rect x="1183" y="205" width="365" height="86" rx="12" fill="#0b1721" stroke="#203746"/><text x="1201" y="233" fill="#42d79b" font-size="12">CONNECTIONS</text><text x="1201" y="264" fill="#edf6fb" font-size="20">accepted current value</text><rect x="40" y="315" width="745" height="300" rx="14" fill="#0b1721" stroke="#203746"/><text x="60" y="347" fill="#edf6fb" font-size="17" font-weight="700">Actor identity/current record</text><rect x="62" y="377" width="701" height="28" rx="7" fill="#0a141d" stroke="#203746"/><rect x="74" y="386" width="248.9" height="7" rx="4" fill="#ef5265" opacity="1"/><rect x="62" y="417" width="701" height="28" rx="7" fill="#0a141d" stroke="#203746"/><rect x="74" y="426" width="301.3" height="7" rx="4" fill="#9fb0bd" opacity="0.5"/><rect x="62" y="457" width="701" height="28" rx="7" fill="#0a141d" stroke="#203746"/><rect x="74" y="466" width="353.70000000000005" height="7" rx="4" fill="#9fb0bd" opacity="0.5"/><rect x="62" y="497" width="701" height="28" rx="7" fill="#0a141d" stroke="#203746"/><rect x="74" y="506" width="406.1" height="7" rx="4" fill="#9fb0bd" opacity="0.5"/><rect x="815" y="315" width="745" height="300" rx="14" fill="#0b1721" stroke="#203746"/><text x="835" y="347" fill="#edf6fb" font-size="17" font-weight="700">Direct/trace network</text><line x1="926.75" y1="484" x2="1098.1" y2="425.5" stroke="#6aa8d8" stroke-width="2"/><line x1="926.75" y1="484" x2="1127.9" y2="530.8" stroke="#6aa8d8" stroke-width="2"/><line x1="1098.1" y1="425.5" x2="1321.6" y2="460.6" stroke="#6aa8d8" stroke-width="2"/><line x1="1127.9" y1="530.8" x2="1321.6" y2="460.6" stroke="#6aa8d8" stroke-width="2"/><line x1="1321.6" y1="460.6" x2="1455.7" y2="512.08" stroke="#6aa8d8" stroke-width="2"/><circle cx="926.75" cy="484" r="13" fill="#ef5265"/><circle cx="1098.1" cy="425.5" r="9" fill="#f0b83f"/><circle cx="1127.9" cy="530.8" r="9" fill="#f0b83f"/><circle cx="1321.6" cy="460.6" r="9" fill="#26c6e8"/><circle cx="1455.7" cy="512.08" r="9" fill="#f0b83f"/><rect x="40" y="633" width="745" height="250" rx="14" fill="#0b1721" stroke="#203746"/><text x="60" y="665" fill="#edf6fb" font-size="17" font-weight="700">Findings/receipts</text><rect x="62" y="695" width="701" height="28" rx="7" fill="#0a141d" stroke="#203746"/><rect x="74" y="704" width="248.9" height="7" rx="4" fill="#ef5265" opacity="1"/><rect x="62" y="735" width="701" height="28" rx="7" fill="#0a141d" stroke="#203746"/><rect x="74" y="744" width="301.3" height="7" rx="4" fill="#9fb0bd" opacity="0.5"/><rect x="62" y="775" width="701" height="28" rx="7" fill="#0a141d" stroke="#203746"/><rect x="74" y="784" width="353.70000000000005" height="7" rx="4" fill="#9fb0bd" opacity="0.5"/><rect x="62" y="815" width="701" height="28" rx="7" fill="#0a141d" stroke="#203746"/><rect x="74" y="824" width="406.1" height="7" rx="4" fill="#9fb0bd" opacity="0.5"/><rect x="815" y="633" width="745" height="250" rx="14" fill="#0b1721" stroke="#203746"/><text x="835" y="665" fill="#edf6fb" font-size="17" font-weight="700">Chronology + claim trails</text><line x1="839" y1="828.52" x2="1536" y2="828.52" stroke="#203746"/><path d="M843 804.6 L978.9 788.04 L1098.1 799.08 L1224.75 749.4 L1351.4 769.64 L1530 725.48" fill="none" stroke="#ef5265" stroke-width="3"/><rect x="40" y="908" width="1520" height="56" rx="10" fill="#09141d" stroke="#203746"/><text x="58" y="933" fill="#9fb0bd" font-size="12">REFERENCE ONLY · accepted content and site behavior remain authoritative</text><text x="58" y="953" fill="#ef5265" font-size="12">Renderer target: Cytoscape + HTML/CSS/SVG</text></svg>