<svg xmlns="http://www.w3.org/2000/svg" width="390" height="844"><rect width="390" height="844" fill="#071018"/><style>text{font-family:Inter,Segoe UI,Arial,sans-serif}</style><rect width="390" height="54" fill="#08131c"/><text x="18" y="34" fill="#edf6fb" font-size="14" font-weight="800">THE 2026 IRAN WAR GUIDE</text><text x="18" y="78" fill="#ef5265" font-size="10">evidence.web_of_lies</text><text x="18" y="112" fill="#edf6fb" font-size="24" font-weight="800">Web of Lies</text><text x="18" y="136" fill="#9fb0bd" font-size="11">mobile recomposition · selection-first</text><rect x="18" y="154" width="172" height="58" rx="10" fill="#0b1721" stroke="#203746"/><text x="30" y="177" fill="#26c6e8" font-size="9">SOURCES</text><text x="30" y="198" fill="#edf6fb" font-size="12">accepted value</text><rect x="199" y="154" width="172" height="58" rx="10" fill="#0b1721" stroke="#203746"/><text x="211" y="177" fill="#f0b83f" font-size="9">AMPLIFIERS</text><text x="211" y="198" fill="#edf6fb" font-size="12">accepted value</text><rect x="18" y="230" width="354" height="245" rx="14" fill="#0b1721" stroke="#203746"/><text x="38" y="262" fill="#edf6fb" font-size="17" font-weight="700">Full/direct/trace network</text><line x1="78.18" y1="371.5" x2="159.6" y2="332.12" stroke="#6aa8d8" stroke-width="2"/><line x1="78.18" y1="371.5" x2="173.76" y2="405.51" stroke="#6aa8d8" stroke-width="2"/><line x1="159.6" y1="332.12" x2="258.72" y2="357.18" stroke="#6aa8d8" stroke-width="2"/><line x1="173.76" y1="405.51" x2="258.72" y2="357.18" stroke="#6aa8d8" stroke-width="2"/><line x1="258.72" y1="357.18" x2="318.9" y2="392.98" stroke="#6aa8d8" stroke-width="2"/><circle cx="78.18" cy="371.5" r="13" fill="#ef5265"/><circle cx="159.6" cy="332.12" r="9" fill="#f0b83f"/><circle cx="173.76" cy="405.51" r="9" fill="#f0b83f"/><circle cx="258.72" cy="357.18" r="9" fill="#26c6e8"/><circle cx="318.9" cy="392.98" r="9" fill="#f0b83f"/><rect x="18" y="493" width="354" height="145" rx="14" fill="#0b1721" stroke="#203746"/><text x="38" y="525" fill="#edf6fb" font-size="17" font-weight="700">Selection detail rail</text><rect x="40" y="555" width="310" height="28" rx="7" fill="#0a141d" stroke="#203746"/><rect x="52" y="564" width="100.32000000000001" height="7" rx="4" fill="#9fb0bd" opacity="1"/><rect x="40" y="595" width="310" height="28" rx="7" fill="#0a141d" stroke="#203746"/><rect x="52" y="604" width="121.44000000000001" height="7" rx="4" fill="#ef5265" opacity="0.55"/><rect x="40" y="635" width="310" height="28" rx="7" fill="#0a141d" stroke="#203746"/><rect x="52" y="644" width="142.56" height="7" rx="4" fill="#ef5265" opacity="0.55"/><rect x="40" y="675" width="310" height="28" rx="7" fill="#0a141d" stroke="#203746"/><rect x="52" y="684" width="163.68" height="7" rx="4" fill="#ef5265" opacity="0.55"/><rect x="18" y="656" width="354" height="125" rx="14" fill="#0b1721" stroke="#203746"/><text x="38" y="688" fill="#edf6fb" font-size="17" font-weight="700">Hall of Shame</text><rect x="40" y="718" width="310" height="28" rx="7" fill="#0a141d" stroke="#203746"/><rect x="52" y="727" width="100.32000000000001" height="7" rx="4" fill="#9fb0bd" opacity="1"/><rect x="40" y="758" width="310" height="28" rx="7" fill="#0a141d" stroke="#203746"/><rect x="52" y="767" width="121.44000000000001" height="7" rx="4" fill="#ef5265" opacity="0.55"/><rect x="40" y="798" width="310" height="28" rx="7" fill="#0a141d" stroke="#203746"/><rect x="52" y="807" width="142.56" height="7" rx="4" fill="#ef5265" opacity="0.55"/><rect x="40" y="838" width="310" height="28" rx="7" fill="#0a141d" stroke="#203746"/><rect x="52" y="847" width="163.68" height="7" rx="4" fill="#ef5265" opacity="0.55"/><text x="18" y="817" fill="#9fb0bd" font-size="9">REFERENCE ONLY · Cytoscape + HTML/CSS/SVG</text></svg>