<svg xmlns="http://www.w3.org/2000/svg" width="1600" height="1000" viewBox="0 0 1600 1000"><rect width="1600" height="1000" fill="#071018"/><style>text{font-family:Inter,Segoe UI,Arial,sans-serif}</style><rect x="0" y="0" width="1600" height="64" fill="#08131c"/><text x="36" y="41" fill="#edf6fb" font-size="22" font-weight="800">THE 2026 IRAN WAR GUIDE</text><text x="560" y="39" fill="#9fb0bd" font-size="14">HOME   WAR   THEMES   DIPLOMACY   INTELLIGENCE   SOURCES</text><text x="40" y="100" fill="#26c6e8" font-size="13">hormuz.overview</text><text x="40" y="145" fill="#edf6fb" font-size="38" font-weight="800">Hormuz &amp; Economy</text><text x="40" y="177" fill="#9fb0bd" font-size="17">Shipping, oil, finance, and commercial risk composed in the approved Hormuz visual language.</text><rect x="40" y="205" width="365" height="86" rx="12" fill="#0b1721" stroke="#203746"/><text x="58" y="233" fill="#26c6e8" font-size="12" font-weight="700">SHIPPING ACTIVITY</text><text x="58" y="264" fill="#edf6fb" font-size="20" font-weight="750">accepted current value</text><rect x="421" y="205" width="365" height="86" rx="12" fill="#0b1721" stroke="#203746"/><text x="439" y="233" fill="#f0b83f" font-size="12" font-weight="700">OIL EXPOSURE</text><text x="439" y="264" fill="#edf6fb" font-size="20" font-weight="750">accepted current value</text><rect x="802" y="205" width="365" height="86" rx="12" fill="#0b1721" stroke="#203746"/><text x="820" y="233" fill="#ef5265" font-size="12" font-weight="700">SANCTIONS PRESSURE</text><text x="820" y="264" fill="#edf6fb" font-size="20" font-weight="750">accepted current value</text><rect x="1183" y="205" width="365" height="86" rx="12" fill="#0b1721" stroke="#203746"/><text x="1201" y="233" fill="#42d79b" font-size="12" font-weight="700">COMMERCIAL RISK</text><text x="1201" y="264" fill="#edf6fb" font-size="20" font-weight="750">accepted current value</text><rect x="40" y="315" width="745" height="300" rx="14" fill="#0b1721" stroke="#203746"/><text x="62" y="349" fill="#edf6fb" font-size="18" font-weight="700">Why Hormuz matters + map</text><path d="M64 517.2 C189 414.6,323.1 555.96,449.75000000000006 464.76 S650.9 410.04,757 494.4" fill="none" stroke="#6aa8d8" stroke-width="2" opacity=".7"/><path d="M70 542.28 C248.60000000000002 496.68,375.25 533.16,576.4 448.8 S710.5 487.56,763 437.4" fill="none" stroke="#26c6e8" stroke-width="3" stroke-dasharray="10 7"/><circle cx="263.5" cy="469.32" r="6" fill="#26c6e8"/><circle cx="472.09999999999997" cy="446.52" r="8" fill="#ef5265"/><circle cx="598.75" cy="498.96" r="6" fill="#26c6e8"/><rect x="815" y="315" width="745" height="300" rx="14" fill="#0b1721" stroke="#203746"/><text x="837" y="349" fill="#edf6fb" font-size="18" font-weight="700">Why sanctions matter + flow</text><path d="M839 517.2 C964 414.6,1098.1 555.96,1224.75 464.76 S1425.9 410.04,1532 494.4" fill="none" stroke="#6aa8d8" stroke-width="2" opacity=".7"/><path d="M845 542.28 C1023.6 496.68,1150.25 533.16,1351.4 448.8 S1485.5 487.56,1538 437.4" fill="none" stroke="#26c6e8" stroke-width="3" stroke-dasharray="10 7"/><circle cx="1038.5" cy="469.32" r="6" fill="#26c6e8"/><circle cx="1247.1" cy="446.52" r="8" fill="#ef5265"/><circle cx="1373.75" cy="498.96" r="6" fill="#26c6e8"/><rect x="40" y="633" width="745" height="250" rx="14" fill="#0b1721" stroke="#203746"/><text x="62" y="667" fill="#edf6fb" font-size="18" font-weight="700">Oil/economy summary</text><rect x="64" y="748" width="163.75" height="56" rx="9" fill="#0e1d29" stroke="#ef5265"/><text x="231.75" y="782" fill="#9fb0bd" font-size="20">→</text><rect x="241.75" y="748" width="163.75" height="56" rx="9" fill="#0e1d29" stroke="#f0b83f"/><text x="409.5" y="782" fill="#9fb0bd" font-size="20">→</text><rect x="419.5" y="748" width="163.75" height="56" rx="9" fill="#0e1d29" stroke="#26c6e8"/><text x="587.25" y="782" fill="#9fb0bd" font-size="20">→</text><rect x="597.25" y="748" width="163.75" height="56" rx="9" fill="#0e1d29" stroke="#42d79b"/><rect x="815" y="633" width="745" height="250" rx="14" fill="#0b1721" stroke="#203746"/><text x="837" y="667" fill="#edf6fb" font-size="18" font-weight="700">What to watch</text><rect x="839" y="701" width="697" height="30" rx="7" fill="#0a141d" stroke="#203746"/><rect x="850" y="710" width="229.24999999999997" height="7" rx="4" fill="#26c6e8" opacity="1"/><rect x="839" y="743" width="697" height="30" rx="7" fill="#0e1d29" stroke="#203746"/><rect x="850" y="752" width="281.65" height="7" rx="4" fill="#9fb0bd" opacity="0.55"/><rect x="839" y="785" width="697" height="30" rx="7" fill="#0a141d" stroke="#203746"/><rect x="850" y="794" width="334.05" height="7" rx="4" fill="#9fb0bd" opacity="0.55"/><rect x="839" y="827" width="697" height="30" rx="7" fill="#0e1d29" stroke="#203746"/><rect x="850" y="836" width="386.45" height="7" rx="4" fill="#9fb0bd" opacity="0.55"/><rect x="40" y="908" width="1520" height="56" rx="10" fill="#09141d" stroke="#203746"/><text x="58" y="933" fill="#9fb0bd" font-size="12">REFERENCE ONLY · accepted wording, evidence, ordering, coordinates, route geometry, WOL relationships, and calculations remain authoritative</text><text x="58" y="953" fill="#26c6e8" font-size="12">Renderer target: MapLibre + ECharts + HTML/CSS/SVG</text></svg>