<svg xmlns="http://www.w3.org/2000/svg" width="390" height="844" viewBox="0 0 390 844"><rect width="390" height="844" fill="#071018"/><style>text{font-family:Inter,Segoe UI,Arial,sans-serif}</style><rect width="390" height="54" fill="#08131c"/><text x="18" y="34" fill="#edf6fb" font-size="14" font-weight="800">THE 2026 IRAN WAR GUIDE</text><text x="18" y="78" fill="#26c6e8" font-size="10">timeline.war</text><text x="18" y="111" fill="#edf6fb" font-size="25" font-weight="800">Timeline</text><text x="18" y="136" fill="#9fb0bd" font-size="11">mobile recomposition · selection-first · no semantic loss</text><rect x="18" y="155" width="172" height="58" rx="10" fill="#0b1721" stroke="#203746"/><text x="30" y="177" fill="#26c6e8" font-size="9">CONFLICT SPAN</text><text x="30" y="198" fill="#edf6fb" font-size="12">accepted value</text><rect x="199" y="155" width="172" height="58" rx="10" fill="#0b1721" stroke="#203746"/><text x="211" y="177" fill="#f0b83f" font-size="9">RECORDED EVENTS</text><text x="211" y="198" fill="#edf6fb" font-size="12">accepted value</text><rect x="18" y="230" width="354" height="245" rx="14" fill="#0b1721" stroke="#203746"/><text x="40" y="264" fill="#edf6fb" font-size="18" font-weight="700">Density/tempo chart</text><line x1="46" y1="418.94" x2="348" y2="418.94" stroke="#203746"/><path d="M48 401.64 L95.88 387.8 L141.89999999999998 398.18 L195 349.74 L244.56 367.03999999999996 L308.28 325.52 L344 337.63" fill="none" stroke="#26c6e8" stroke-width="3"/><circle cx="95.88" cy="418.94" r="5" fill="#f0b83f"/><circle cx="195" cy="418.94" r="5" fill="#f0b83f"/><circle cx="308.28" cy="418.94" r="5" fill="#f0b83f"/><rect x="18" y="493" width="354" height="145" rx="14" fill="#0b1721" stroke="#203746"/><text x="40" y="527" fill="#edf6fb" font-size="18" font-weight="700">Annotated conflict timeline</text><line x1="46" y1="603.94" x2="348" y2="603.94" stroke="#203746"/><path d="M48 596.64 L95.88 590.8 L141.89999999999998 595.18 L195 574.74 L244.56 582.04 L308.28 564.52 L344 569.63" fill="none" stroke="#26c6e8" stroke-width="3"/><circle cx="95.88" cy="603.94" r="5" fill="#f0b83f"/><circle cx="195" cy="603.94" r="5" fill="#f0b83f"/><circle cx="308.28" cy="603.94" r="5" fill="#f0b83f"/><rect x="18" y="656" width="354" height="125" rx="14" fill="#0b1721" stroke="#203746"/><text x="40" y="690" fill="#edf6fb" font-size="18" font-weight="700">Selected-window map</text><path d="M42 744.45 C88.8 720.6,152.52 753.46,212.70000000000002 732.26 S308.28 719.54,344 739.15" fill="none" stroke="#6aa8d8" stroke-width="2" opacity=".7"/><path d="M48 750.28 C117.12 739.68,177.3 748.16,272.88 728.55 S336.6 737.56,350 725.9" fill="none" stroke="#26c6e8" stroke-width="3" stroke-dasharray="10 7"/><circle cx="124.2" cy="733.32" r="6" fill="#26c6e8"/><circle cx="223.32" cy="728.02" r="8" fill="#ef5265"/><circle cx="283.5" cy="740.21" r="6" fill="#26c6e8"/><text x="18" y="817" fill="#9fb0bd" font-size="9">REFERENCE ONLY · evidence/source behavior preserved · ECharts + MapLibre + HTML/CSS</text></svg>