<svg xmlns="http://www.w3.org/2000/svg" width="1600" height="1000" viewBox="0 0 1600 1000"><rect width="1600" height="1000" fill="#071018"/><style>text{font-family:Inter,Segoe UI,Arial,sans-serif}</style><rect x="0" y="0" width="1600" height="64" fill="#08131c"/><text x="36" y="41" fill="#edf6fb" font-size="22" font-weight="800">THE 2026 IRAN WAR GUIDE</text><text x="560" y="39" fill="#9fb0bd" font-size="14">HOME   WAR   THEMES   DIPLOMACY   INTELLIGENCE   SOURCES</text><text x="40" y="100" fill="#26c6e8" font-size="13">timeline.war</text><text x="40" y="145" fill="#edf6fb" font-size="38" font-weight="800">Timeline</text><text x="40" y="177" fill="#9fb0bd" font-size="17">Conflict chronology rendered as an analytical time surface rather than a long generic feed.</text><rect x="40" y="205" width="365" height="86" rx="12" fill="#0b1721" stroke="#203746"/><text x="58" y="233" fill="#26c6e8" font-size="12" font-weight="700">CONFLICT SPAN</text><text x="58" y="264" fill="#edf6fb" font-size="20" font-weight="750">accepted current value</text><rect x="421" y="205" width="365" height="86" rx="12" fill="#0b1721" stroke="#203746"/><text x="439" y="233" fill="#f0b83f" font-size="12" font-weight="700">RECORDED EVENTS</text><text x="439" y="264" fill="#edf6fb" font-size="20" font-weight="750">accepted current value</text><rect x="802" y="205" width="365" height="86" rx="12" fill="#0b1721" stroke="#203746"/><text x="820" y="233" fill="#ef5265" font-size="12" font-weight="700">CONFLICT DAYS</text><text x="820" y="264" fill="#edf6fb" font-size="20" font-weight="750">accepted current value</text><rect x="1183" y="205" width="365" height="86" rx="12" fill="#0b1721" stroke="#203746"/><text x="1201" y="233" fill="#42d79b" font-size="12" font-weight="700">EVIDENCE CUTOFF</text><text x="1201" y="264" fill="#edf6fb" font-size="20" font-weight="750">accepted current value</text><rect x="40" y="315" width="745" height="300" rx="14" fill="#0b1721" stroke="#203746"/><text x="62" y="349" fill="#edf6fb" font-size="18" font-weight="700">Density/tempo chart</text><line x1="68" y1="546.84" x2="761" y2="546.84" stroke="#203746"/><path d="M70 524.04 L203.9 505.79999999999995 L300.75 519.48 L412.5 455.64 L516.8 478.44 L650.9 423.72 L757 439.68" fill="none" stroke="#26c6e8" stroke-width="3"/><circle cx="203.9" cy="546.84" r="5" fill="#f0b83f"/><circle cx="412.5" cy="546.84" r="5" fill="#f0b83f"/><circle cx="650.9" cy="546.84" r="5" fill="#f0b83f"/><rect x="815" y="315" width="745" height="300" rx="14" fill="#0b1721" stroke="#203746"/><text x="837" y="349" fill="#edf6fb" font-size="18" font-weight="700">Annotated conflict timeline</text><path d="M839 517.2 C964 414.6,1098.1 555.96,1224.75 464.76 S1425.9 410.04,1532 494.4" fill="none" stroke="#6aa8d8" stroke-width="2" opacity=".7"/><path d="M845 542.28 C1023.6 496.68,1150.25 533.16,1351.4 448.8 S1485.5 487.56,1538 437.4" fill="none" stroke="#26c6e8" stroke-width="3" stroke-dasharray="10 7"/><circle cx="1038.5" cy="469.32" r="6" fill="#26c6e8"/><circle cx="1247.1" cy="446.52" r="8" fill="#ef5265"/><circle cx="1373.75" cy="498.96" r="6" fill="#26c6e8"/><rect x="40" y="633" width="745" height="250" rx="14" fill="#0b1721" stroke="#203746"/><text x="62" y="667" fill="#edf6fb" font-size="18" font-weight="700">Selected-window map</text><path d="M64 802.7 C189 722.6,323.1 832.96,449.75000000000006 761.76 S650.9 719.04,757 784.9" fill="none" stroke="#6aa8d8" stroke-width="2" opacity=".7"/><path d="M70 822.28 C248.60000000000002 786.6800000000001,375.25 815.16,576.4 749.3 S710.5 779.56,763 740.4" fill="none" stroke="#26c6e8" stroke-width="3" stroke-dasharray="10 7"/><circle cx="263.5" cy="765.32" r="6" fill="#26c6e8"/><circle cx="472.09999999999997" cy="747.52" r="8" fill="#ef5265"/><circle cx="598.75" cy="788.46" r="6" fill="#26c6e8"/><rect x="815" y="633" width="745" height="250" rx="14" fill="#0b1721" stroke="#203746"/><text x="837" y="667" fill="#edf6fb" font-size="18" font-weight="700">Selected event detail</text><rect x="839" y="701" width="697" height="30" rx="7" fill="#0a141d" stroke="#203746"/><rect x="850" y="710" width="229.24999999999997" height="7" rx="4" fill="#26c6e8" opacity="1"/><rect x="839" y="743" width="697" height="30" rx="7" fill="#0e1d29" stroke="#203746"/><rect x="850" y="752" width="281.65" height="7" rx="4" fill="#9fb0bd" opacity="0.55"/><rect x="839" y="785" width="697" height="30" rx="7" fill="#0a141d" stroke="#203746"/><rect x="850" y="794" width="334.05" height="7" rx="4" fill="#9fb0bd" opacity="0.55"/><rect x="839" y="827" width="697" height="30" rx="7" fill="#0e1d29" stroke="#203746"/><rect x="850" y="836" width="386.45" height="7" rx="4" fill="#9fb0bd" opacity="0.55"/><rect x="40" y="908" width="1520" height="56" rx="10" fill="#09141d" stroke="#203746"/><text x="58" y="933" fill="#9fb0bd" font-size="12">REFERENCE ONLY · accepted wording, evidence, ordering, coordinates, route geometry, WOL relationships, and calculations remain authoritative</text><text x="58" y="953" fill="#26c6e8" font-size="12">Renderer target: ECharts + MapLibre + HTML/CSS</text></svg>